<svg id="Logo" xmlns="http://www.w3.org/2000/svg" viewBox="0 0 97.11 87.26" preserveAspectRatio="xMinYMid"><defs><style>.cls-1{fill:#ddAAAA;}.cls-2{fill:#00356c;}.cls-3,.cls-4{fill:#fff;}.cls-4{fill-rule:evenodd;}</style></defs><title>7065 ACC_logo_tagline_clearspace_reverse_RGB</title><path class="cls-2" d="M13,68.88H85.4V57.74H24.16C18,57.74,13,61.92,13,68.88Z"/><path class="cls-2" d="M11.7,11.7V68.88h0c0-7.67,5.58-12.45,12.46-12.45H85.4V11.7H11.7Z"/><polygon class="cls-3" points="11.7 68.88 13.01 68.88 13.01 68.88 11.7 68.88 11.7 68.88"/><path class="cls-3" d="M11.7,68.88H13c0-7,5-11.15,11.15-11.15H85.4V56.43H24.16C17.28,56.43,11.7,61.21,11.7,68.88Z"/><path d="M85.4,68.88H12.64c0-7.19,5.18-11.51,11.51-11.51H85.4V68.88h0Z"/><path class="cls-4" d="M20.64,61.62v2.79H21.2v-1h0.31a1.16,1.16,0,0,0,.56-0.09,0.86,0.86,0,0,0,.48-0.81,0.78,0.78,0,0,0-.4-0.72,1.36,1.36,0,0,0-.77-0.14H20.64Zm0.56,0.45h0.36a0.37,0.37,0,0,1,.38.42,0.5,0.5,0,0,1-.07.29,0.35,0.35,0,0,1-.37.14H21.2V62.07h0Z"/><path class="cls-4" d="M23.19,61.62v2.79h0.55V63.24l0.09,0a1.7,1.7,0,0,1,.46.68l0.26,0.46h0.66s-0.51-.88-0.67-1.08a0.53,0.53,0,0,0-.12-0.12A0.72,0.72,0,0,0,25,62.44a0.77,0.77,0,0,0-.82-0.82h-1Zm0.55,0.45h0.2a1,1,0,0,1,.32,0,0.33,0.33,0,0,1,.2.34,0.38,0.38,0,0,1-.11.28,0.59,0.59,0,0,1-.42.09H23.74V62.07h0Z"/><polygon class="cls-3" points="25.95 61.62 25.95 64.41 27.57 64.41 27.57 63.92 26.52 63.92 26.52 63.18 27.31 63.18 27.31 62.72 26.51 62.72 26.51 62.08 27.46 62.08 27.54 61.62 25.95 61.62 25.95 61.62"/><path class="cls-3" d="M28,61.62l0.95,2.81h0.51l1-2.81H29.84L29.37,63a5.37,5.37,0,0,0-.16.56c0-.2-0.09-0.36-0.13-0.49l-0.46-1.45H28Z"/><polygon class="cls-3" points="30.98 61.62 30.98 64.41 32.61 64.41 32.61 63.92 31.55 63.92 31.55 63.18 32.34 63.18 32.34 62.72 31.55 62.72 31.55 62.08 32.5 62.08 32.57 61.62 30.98 61.62 30.98 61.62"/><path class="cls-3" d="M33.45,61.62v2.79H34l0-1.19c0-.23,0-0.56,0-0.79,0.05,0.17.22,0.57,0.38,0.91l0.48,1.07h0.59V61.62H34.86v1.14c0,0.19,0,.55,0,0.77a5.38,5.38,0,0,0-.3-0.79l-0.53-1.11H33.45Z"/><polygon class="cls-3" points="36.07 61.62 36.07 62.08 36.76 62.08 36.76 64.41 37.33 64.41 37.33 62.08 37.99 62.08 38.08 61.62 36.07 61.62 36.07 61.62"/><polygon class="cls-3" points="38.7 61.62 38.7 64.41 39.28 64.41 39.28 61.62 38.7 61.62 38.7 61.62"/><path class="cls-4" d="M41.22,61.58a1.24,1.24,0,0,0-.58.14A1.42,1.42,0,0,0,40,63a1.65,1.65,0,0,0,.32,1,1,1,0,0,0,.91.39,1.06,1.06,0,0,0,.56-0.13A1.41,1.41,0,0,0,42.42,63a1.22,1.22,0,0,0-1.2-1.42h0Zm0,0.43a0.5,0.5,0,0,1,.49.35,2.23,2.23,0,0,1,.07.65c0,0.71-.16,1-0.55,1a0.55,0.55,0,0,1-.33-0.1,1.12,1.12,0,0,1-.25-0.9,1.62,1.62,0,0,1,.14-0.76A0.49,0.49,0,0,1,41.21,62h0Z"/><path class="cls-3" d="M43.16,61.62v2.79H43.7l0-1.19c0-.23,0-0.56,0-0.79,0.05,0.17.22,0.57,0.38,0.91l0.48,1.07h0.59V61.62H44.56v1.14c0,0.19,0,.55,0,0.77a5.4,5.4,0,0,0-.3-0.79l-0.53-1.11H43.16Z"/><path class="cls-3" d="M46,63.89a0.28,0.28,0,0,0-.28.28A0.28,0.28,0,1,0,46,63.89h0Z"/><path class="cls-3" d="M49.76,61.78a1.14,1.14,0,0,0-.71-0.22A1.2,1.2,0,0,0,48,62.2a1.79,1.79,0,0,0-.19.87,1.45,1.45,0,0,0,.34,1,1.27,1.27,0,0,0,1.68.12l-0.26-.35a0.72,0.72,0,0,1-.48.18,0.58,0.58,0,0,1-.54-0.31A1.56,1.56,0,0,1,48.43,63a1.28,1.28,0,0,1,.16-0.72A0.58,0.58,0,0,1,49.06,62a0.73,0.73,0,0,1,.45.16l0.25-.38h0Z"/><path class="cls-4" d="M51.1,61.61l-0.91,2.8h0.59l0.2-.66h0.82L52,64.41h0.6l-0.88-2.8H51.1Zm0,1.67c0.06-.18.1-0.32,0.15-0.52l0.13-.54,0.11,0.49c0.06,0.27.15,0.56,0.15,0.56H51.1Z"/><path class="cls-4" d="M53.21,61.62v2.79h0.55V63.24l0.09,0a1.7,1.7,0,0,1,.46.68l0.26,0.46h0.66s-0.51-.88-0.67-1.08a0.53,0.53,0,0,0-.12-0.12,0.72,0.72,0,0,0,.62-0.77,0.77,0.77,0,0,0-.82-0.82h-1Zm0.55,0.45H54a1,1,0,0,1,.32,0,0.33,0.33,0,0,1,.2.34,0.38,0.38,0,0,1-.11.28,0.59,0.59,0,0,1-.42.09H53.76V62.07h0Z"/><polygon class="cls-3" points="55.92 61.62 55.92 64.41 57.55 64.41 57.55 63.92 56.49 63.92 56.49 63.18 57.28 63.18 57.28 62.72 56.48 62.72 56.48 62.08 57.44 62.08 57.51 61.62 55.92 61.62 55.92 61.62"/><path class="cls-3" d="M58.32,63.89a0.28,0.28,0,0,0-.28.28,0.28,0.28,0,1,0,.28-0.28h0Z"/><path class="cls-4" d="M60.3,61.62v2.79h0.55V63.24l0.09,0a1.7,1.7,0,0,1,.46.68l0.26,0.46h0.66s-0.51-.88-0.67-1.08a0.53,0.53,0,0,0-.12-0.12,0.72,0.72,0,0,0,.62-0.77,0.77,0.77,0,0,0-.82-0.82h-1Zm0.55,0.45h0.2a1,1,0,0,1,.32,0,0.33,0.33,0,0,1,.2.34,0.38,0.38,0,0,1-.11.28,0.59,0.59,0,0,1-.42.09H60.85V62.07h0Z"/><polygon class="cls-3" points="63.06 61.62 63.06 64.41 64.69 64.41 64.69 63.92 63.63 63.92 63.63 63.18 64.42 63.18 64.42 62.72 63.62 62.72 63.62 62.08 64.58 62.08 64.65 61.62 63.06 61.62 63.06 61.62"/><path class="cls-3" d="M67.26,61.78a1.14,1.14,0,0,0-.71-0.22,1.2,1.2,0,0,0-1.07.65,1.79,1.79,0,0,0-.19.87,1.45,1.45,0,0,0,.34,1,1.27,1.27,0,0,0,1.68.12l-0.26-.35a0.72,0.72,0,0,1-.48.18,0.58,0.58,0,0,1-.54-0.31A1.56,1.56,0,0,1,65.94,63a1.28,1.28,0,0,1,.16-0.72A0.58,0.58,0,0,1,66.57,62a0.73,0.73,0,0,1,.45.16l0.25-.38h0Z"/><path class="cls-4" d="M69,61.58a1.24,1.24,0,0,0-.58.14,1.42,1.42,0,0,0-.63,1.3,1.65,1.65,0,0,0,.32,1,1,1,0,0,0,.91.39,1.06,1.06,0,0,0,.56-0.13A1.41,1.41,0,0,0,70.17,63,1.22,1.22,0,0,0,69,61.58h0ZM69,62a0.5,0.5,0,0,1,.49.35,2.23,2.23,0,0,1,.07.65c0,0.71-.16,1-0.55,1a0.55,0.55,0,0,1-.33-0.1,1.12,1.12,0,0,1-.25-0.9,1.62,1.62,0,0,1,.14-0.76A0.49,0.49,0,0,1,69,62h0Z"/><path class="cls-3" d="M70.5,61.62l0.95,2.81H72l1-2.81H72.34L71.87,63a5.35,5.35,0,0,0-.16.56c0-.2-0.09-0.36-0.13-0.49l-0.46-1.45H70.5Z"/><polygon class="cls-3" points="73.57 61.62 73.57 64.41 75.19 64.41 75.19 63.92 74.14 63.92 74.14 63.18 74.92 63.18 74.92 62.72 74.13 62.72 74.13 62.08 75.08 62.08 75.15 61.62 73.57 61.62 73.57 61.62"/><path class="cls-4" d="M76,61.62v2.79h0.55V63.24l0.09,0a1.7,1.7,0,0,1,.46.68l0.26,0.46h0.66s-0.51-.88-0.67-1.08a0.54,0.54,0,0,0-.12-0.12,0.72,0.72,0,0,0,.62-0.77,0.77,0.77,0,0,0-.82-0.82H76Zm0.55,0.45h0.2a1,1,0,0,1,.32,0,0.33,0.33,0,0,1,.2.34,0.38,0.38,0,0,1-.11.28,0.59,0.59,0,0,1-.42.09H76.59V62.07h0Z"/><path class="cls-3" d="M78.25,61.62l0.87,1.64v1.15h0.59V63.26l0.89-1.64H79.93l-0.36.77-0.15.35a2.47,2.47,0,0,0-.14-0.36l-0.36-.76H78.25Z"/><path class="cls-3" d="M80.76,63.89a0.28,0.28,0,0,0-.28.28,0.28,0.28,0,1,0,.28-0.28h0Z"/><path class="cls-3" d="M53.23,37.09a1.59,1.59,0,0,1,0,3.19H49.07v6l3.55-3.66a1.61,1.61,0,0,1,2.26-.1L55,42.6v-4a1.56,1.56,0,0,1,1.54-1.49h5.71a1.59,1.59,0,0,1,0,3.19H58v6l3.55-3.66a1.53,1.53,0,1,1,2.19,2.14l-6.27,6.42a1.38,1.38,0,0,1-1,.45A1.58,1.58,0,0,1,55,50V44.57l-0.15.18-6.27,6.42a1.38,1.38,0,0,1-1,.45A1.58,1.58,0,0,1,46,50V38.58a1.56,1.56,0,0,1,1.54-1.49h5.71Z"/><path class="cls-4" d="M42.16,43.17V40.28H38.45l-1.8,1.84v4l3.12-3.2a1.52,1.52,0,0,1,2.19,0,1.58,1.58,0,0,1,.19.24h0Zm-4.35-6.08h5.9a1.56,1.56,0,0,1,1.54,1.59V50a1.55,1.55,0,1,1-3.1,0V44.94a1.61,1.61,0,0,1-.2.25l-5.84,6a1.38,1.38,0,0,1-1,.45A1.58,1.58,0,0,1,33.55,50V41.45a1.6,1.6,0,0,1,.33-1l3-3.08a1.55,1.55,0,0,1,.93-0.31h0Z"/></svg>