<?xml version="1.0" encoding="UTF-8"?>
<!DOCTYPE svg PUBLIC "-//W3C//DTD SVG 1.1//EN" "http://www.w3.org/Graphics/SVG/1.1/DTD/svg11.dtd">
<!-- Creator: CorelDRAW X8 -->
<svg xmlns="http://www.w3.org/2000/svg" xml:space="preserve" width="81.9386mm" height="38.7439mm" version="1.1" style="shape-rendering:geometricPrecision; text-rendering:geometricPrecision; image-rendering:optimizeQuality; fill-rule:evenodd; clip-rule:evenodd"
viewBox="0 0 7594 3591" preserveAspectRatio="xMinYMid"
 xmlns:xlink="http://www.w3.org/1999/xlink">
 <defs>
  <style type="text/css">
   <![CDATA[
    .fil0 {fill:#FEFEFE}
   ]]>
  </style>
 </defs>
 <g id="Layer_x0020_1">
  <metadata id="CorelCorpID_0Corel-Layer"/>
  <path class="fil0" d="M5293 1860c7,366 1,738 1,1105 0,197 -28,334 80,470 88,111 200,187 402,136 128,-32 232,-164 308,-242 57,-59 78,-86 132,-152l969 -986c198,-199 479,-396 393,-692 -38,-130 -166,-244 -313,-254 -200,-14 -285,87 -372,175 -157,160 -716,752 -831,847l-4 -1481c239,8 479,1 711,1 267,0 444,41 596,-123 115,-125 132,-380 9,-525 -120,-141 -347,-133 -587,-133 -237,0 -474,0 -711,0 -210,0 -472,-34 -624,78 -169,126 -157,280 -157,553 -1,198 20,547 -6,726 -109,-105 -279,-163 -464,-74 -81,39 -276,255 -339,317l-481 497c-52,51 -113,122 -166,166l-3 -1483c243,9 493,1 729,1 281,0 459,30 604,-150 142,-176 70,-428 -62,-541 -134,-116 -427,-90 -648,-90 -243,0 -486,0 -729,0 -268,0 -440,1 -578,159 -112,127 -79,459 -79,668l-1 2221c0,200 16,421 237,510 335,136 577,-286 874,-572l745 -748c73,-86 105,-120 179,-194 48,-48 144,-162 186,-190zm-3164 105c15,328 2,686 2,1018 0,232 -16,614 408,604 138,-3 257,-108 308,-189 72,-116 47,-320 47,-468l0 -2026c0,-337 62,-696 -175,-837 -158,-95 -716,-61 -944,-61 -1116,0 -760,-79 -1439,579 -293,285 -331,333 -330,692 1,310 -22,1846 17,2020 62,271 406,385 613,182l1493 -1514zm-1359 -599l-1 864c123,-65 750,-817 910,-869 89,-29 194,-25 276,4 66,22 95,45 138,91 3,3 7,7 9,10l24 -681 -797 1c-151,-1 -183,85 -390,295 -175,177 -170,128 -169,285z"/>
 </g>
</svg>
